<svg width="0" height="0" style="position:absolute"><symbol viewBox="0 0 320 512" id="icon-angle-down" xmlns="http://www.w3.org/2000/svg"><path d="M143 352.3L7 216.3c-9.4-9.4-9.4-24.6 0-33.9l22.6-22.6c9.4-9.4 24.6-9.4 33.9 0l96.4 96.4 96.4-96.4c9.4-9.4 24.6-9.4 33.9 0l22.6 22.6c9.4 9.4 9.4 24.6 0 33.9l-136 136c-9.2 9.4-24.4 9.4-33.8 0z"/></symbol><symbol viewBox="0 0 256 512" id="icon-angle-left" xmlns="http://www.w3.org/2000/svg"><path d="M31.7 239l136-136c9.4-9.4 24.6-9.4 33.9 0l22.6 22.6c9.4 9.4 9.4 24.6 0 33.9L127.9 256l96.4 96.4c9.4 9.4 9.4 24.6 0 33.9L201.7 409c-9.4 9.4-24.6 9.4-33.9 0l-136-136c-9.5-9.4-9.5-24.6-.1-34z"/></symbol><symbol viewBox="0 0 256 512" id="icon-angle-right" xmlns="http://www.w3.org/2000/svg"><path d="M224.3 273l-136 136c-9.4 9.4-24.6 9.4-33.9 0l-22.6-22.6c-9.4-9.4-9.4-24.6 0-33.9l96.4-96.4-96.4-96.4c-9.4-9.4-9.4-24.6 0-33.9L54.3 103c9.4-9.4 24.6-9.4 33.9 0l136 136c9.5 9.4 9.5 24.6.1 34z"/></symbol><symbol viewBox="0 0 469.333 469.333" id="icon-chef" xmlns="http://www.w3.org/2000/svg"><path d="M394.667 384H74.75c-5.885 0-10.656 4.771-10.667 10.656l-.042 31.104c-.01 11.635 4.51 22.573 12.729 30.802 8.229 8.24 19.156 12.771 30.792 12.771h254.25c24 0 43.521-19.521 43.521-43.521v-31.146A10.66 10.66 0 00394.667 384zM352 42.667c-6.531 0-13.24.656-20.344 1.979C307.25 16.187 272.271 0 234.667 0c-70.583 0-128 57.417-128 128 0 5.885-4.781 10.667-10.667 10.667-5.885 0-10.667-4.781-10.667-10.667 0-23.094 5.313-45.438 15.792-66.406a10.673 10.673 0 00-1.219-11.448A10.742 10.742 0 0089 46.469C36.594 59.542 0 106.229 0 160c0 44.333 25 84.635 64.25 104.562l-.115 87.427c0 2.823 1.115 5.542 3.115 7.552 2.01 2 4.719 3.125 7.552 3.125h319.865a10.66 10.66 0 0010.667-10.667v-87.594c39.104-19.979 64-60.219 64-104.406C469.333 95.302 416.698 42.667 352 42.667zM156.104 296.25a10.688 10.688 0 01-15.02-1.479c-3.521-4.302-34.417-42.76-34.417-70.771a10.66 10.66 0 0110.667-10.667A10.66 10.66 0 01128.001 224c0 15.438 18.146 43.292 29.583 57.229 3.728 4.563 3.072 11.281-1.48 15.021zm89.229-8.25c0 5.896-4.771 10.667-10.667 10.667S224 293.896 224 288v-64c0-5.896 4.771-10.667 10.667-10.667s10.667 4.771 10.667 10.667v64zm82.917 6.771a10.67 10.67 0 01-8.25 3.896c-2.385 0-4.781-.792-6.76-2.417-4.552-3.74-5.219-10.458-1.49-15.01 11.438-13.969 29.583-41.854 29.583-57.24A10.66 10.66 0 01352 213.333 10.66 10.66 0 01362.667 224c0 28.01-30.896 66.469-34.417 70.771z"/></symbol><symbol viewBox="0 0 384 512" id="icon-fire" xmlns="http://www.w3.org/2000/svg"><path d="M216 23.86c0-23.8-30.65-32.77-44.15-13.04C48 191.85 224 200 224 288c0 35.63-29.11 64.46-64.85 63.99-35.17-.45-63.15-29.77-63.15-64.94v-85.51c0-21.7-26.47-32.23-41.43-16.5C27.8 213.16 0 261.33 0 320c0 105.87 86.13 192 192 192s192-86.13 192-192c0-170.29-168-193-168-296.14z"/></symbol><symbol viewBox="0 0 576 512" id="icon-folder-open" xmlns="http://www.w3.org/2000/svg"><path d="M572.694 292.093L500.27 416.248A63.997 63.997 0 01444.989 448H45.025c-18.523 0-30.064-20.093-20.731-36.093l72.424-124.155A64 64 0 01152 256h399.964c18.523 0 30.064 20.093 20.73 36.093zM152 224h328v-48c0-26.51-21.49-48-48-48H272l-64-64H48C21.49 64 0 85.49 0 112v278.046l69.077-118.418C86.214 242.25 117.989 224 152 224z"/></symbol><symbol viewBox="0 0 384 512" id="icon-hourglass-start" xmlns="http://www.w3.org/2000/svg"><path d="M360 0H24C10.745 0 0 10.745 0 24v16c0 13.255 10.745 24 24 24 0 90.965 51.016 167.734 120.842 192C75.016 280.266 24 357.035 24 448c-13.255 0-24 10.745-24 24v16c0 13.255 10.745 24 24 24h336c13.255 0 24-10.745 24-24v-16c0-13.255-10.745-24-24-24 0-90.965-51.016-167.734-120.842-192C308.984 231.734 360 154.965 360 64c13.255 0 24-10.745 24-24V24c0-13.255-10.745-24-24-24zm-64 448H88c0-77.458 46.204-144 104-144 57.786 0 104 66.517 104 144z"/></symbol><symbol viewBox="0 0 512 512" id="icon-search" xmlns="http://www.w3.org/2000/svg"><path d="M505 442.7L405.3 343c-4.5-4.5-10.6-7-17-7H372c27.6-35.3 44-79.7 44-128C416 93.1 322.9 0 208 0S0 93.1 0 208s93.1 208 208 208c48.3 0 92.7-16.4 128-44v16.3c0 6.4 2.5 12.5 7 17l99.7 99.7c9.4 9.4 24.6 9.4 33.9 0l28.3-28.3c9.4-9.4 9.4-24.6.1-34zM208 336c-70.7 0-128-57.2-128-128 0-70.7 57.2-128 128-128 70.7 0 128 57.2 128 128 0 70.7-57.2 128-128 128z"/></symbol><symbol viewBox="0 0 640 512" id="icon-tags" xmlns="http://www.w3.org/2000/svg"><path d="M497.941 225.941L286.059 14.059A48 48 0 00252.118 0H48C21.49 0 0 21.49 0 48v204.118a48 48 0 0014.059 33.941l211.882 211.882c18.744 18.745 49.136 18.746 67.882 0l204.118-204.118c18.745-18.745 18.745-49.137 0-67.882zM112 160c-26.51 0-48-21.49-48-48s21.49-48 48-48 48 21.49 48 48-21.49 48-48 48zm513.941 133.823L421.823 497.941c-18.745 18.745-49.137 18.745-67.882 0l-.36-.36L527.64 323.522c16.999-16.999 26.36-39.6 26.36-63.64s-9.362-46.641-26.36-63.64L331.397 0h48.721a48 48 0 0133.941 14.059l211.882 211.882c18.745 18.745 18.745 49.137 0 67.882z"/></symbol><symbol viewBox="0 0 416 512" id="icon-utensils" xmlns="http://www.w3.org/2000/svg"><path d="M207.9 15.2c.8 4.7 16.1 94.5 16.1 128.8 0 52.3-27.8 89.6-68.9 104.6L168 486.7c.7 13.7-10.2 25.3-24 25.3H80c-13.7 0-24.7-11.5-24-25.3l12.9-238.1C27.7 233.6 0 196.2 0 144 0 109.6 15.3 19.9 16.1 15.2 19.3-5.1 61.4-5.4 64 16.3v141.2c1.3 3.4 15.1 3.2 16 0 1.4-25.3 7.9-139.2 8-141.8 3.3-20.8 44.7-20.8 47.9 0 .2 2.7 6.6 116.5 8 141.8.9 3.2 14.8 3.4 16 0V16.3c2.6-21.6 44.8-21.4 48-1.1zm119.2 285.7l-15 185.1c-1.2 14 9.9 26 23.9 26h56c13.3 0 24-10.7 24-24V24c0-13.2-10.7-24-24-24-82.5 0-221.4 178.5-64.9 300.9z"/></symbol></svg>